<svg id="Calque_1" xmlns="http://www.w3.org/2000/svg" width="1636.634" height="1072.177" viewBox="0 0 1636.634 1072.177"><path fill-rule="evenodd" clip-rule="evenodd" fill="none" stroke="#1B171B" stroke-width=".5" stroke-miterlimit="10" d="M707.978 167.088h208.371V296.56H707.978zm0 155.789h208.371V452.35H707.978zm231.466 0h208.373V452.35H939.444zM707.978 473.636h208.371V603.11H707.978zM475.265 322.877h208.372V452.35H475.265zm.002-155.789h208.371V296.56H475.267zm.001-141.893H683.64v129.474H475.268zm-224.662 0h208.372v129.474H250.606zm0 141.893h208.372V296.56H250.606zm-.001 155.789h208.371V452.35H250.605zm-223.185 0h208.372V452.35H27.42zm223.186 144.846h208.372v129.475H250.606zm224.661 5.913h208.371V603.11H475.267zm-224.659 137.56h208.371v129.475H250.608zm224.662 8.519h208.371V749.19H475.27zm.001 145.926h208.372v129.475H475.271zm694.169-442.764h208.373V452.35H1169.44zm0-146.968h208.373v129.473H1169.44zm229.998 0h208.373v129.473h-208.373zm0 146.968h208.373V452.35h-208.373zm0 144.846h208.373v129.475h-208.373zM939.444 175.909h208.373v129.474H939.444zm0 297.727h208.373V603.11H939.444zm229.996 0h208.373V603.11H1169.44zm0 146.079h208.373V749.19H1169.44zm0 145.926h208.373v129.475H1169.44zM707.978 619.716h208.371v129.475H707.978zm231.466 0h208.373v129.475H939.444zm0 145.928h208.373v129.473H939.444zm0 149.072h208.373v129.473H939.444zM707.978 765.641h208.371v129.475H707.978zm0 149.075h208.371v129.473H707.978zm-232.711 0h208.371v129.473H475.267z"/><path d="M812.163 231.824v155.789"/><path fill="none" stroke="#1B171B" stroke-miterlimit="10" d="M812.163 231.824v148.729"/><path fill="#1B171B" d="M812.163 387.613l-4.066-9.949 4.066 2.361 4.064-2.361z"/><path d="M812.163 402.657V544.39"/><path fill="none" stroke="#1B171B" stroke-miterlimit="10" d="M812.163 402.657V537.33"/><path fill="#1B171B" d="M812.163 544.39l-4.066-9.948 4.066 2.361 4.064-2.361z"/><path d="M579.452 402.77v141.734"/><path fill="none" stroke="#1B171B" stroke-miterlimit="10" d="M579.452 402.77v134.673"/><path fill="#1B171B" d="M579.452 544.504l-4.066-9.949 4.066 2.361 4.064-2.361z"/><path d="M354.794 402.77v141.734"/><path fill="none" stroke="#1B171B" stroke-miterlimit="10" d="M354.794 402.77v135.699"/><path fill="#1B171B" d="M354.794 544.504c-1.054-2.841-2.852-6.364-4.756-8.548l4.756 1.72 4.755-1.72c-1.904 2.184-3.702 5.708-4.755 8.548z"/><path d="M805.455 393.967H655.004"/><path fill="none" stroke="#1B171B" stroke-miterlimit="10" d="M805.455 393.967h-143.39"/><path fill="#1B171B" d="M655.004 393.967l9.95-4.066-2.361 4.066 2.361 4.064z"/><path d="M563.131 391.283H372.825"/><path fill="none" stroke="#1B171B" stroke-miterlimit="10" d="M563.131 391.283H378.86"/><path fill="#1B171B" d="M372.825 391.283c2.84-1.055 6.363-2.853 8.547-4.757l-1.72 4.757 1.72 4.754c-2.184-1.904-5.707-3.702-8.547-4.754z"/><path d="M819.613 393.967h155.788"/><path fill="none" stroke="#1B171B" stroke-miterlimit="10" d="M819.613 393.967h148.728"/><path fill="#1B171B" d="M975.401 393.967l-9.949 4.065 2.361-4.065-2.361-4.064z"/><path d="M812.163 559.009v141.733"/><path fill="none" stroke="#1B171B" stroke-miterlimit="10" d="M812.163 559.009v134.672"/><path fill="#1B171B" d="M812.163 700.742l-4.066-9.95 4.066 2.362 4.064-2.362z"/><path d="M812.163 716.23v141.734"/><path fill="none" stroke="#1B171B" stroke-miterlimit="10" d="M812.163 716.23v134.675"/><path fill="#1B171B" d="M812.163 857.964l-4.066-9.949 4.066 2.361 4.064-2.361z"/><path d="M826.222 553.523l196.959 132.387"/><path fill="none" stroke="#1B171B" stroke-miterlimit="10" d="M826.222 553.523l191.099 128.448"/><path fill="#1B171B" d="M1023.181 685.91l-10.526-2.176 4.229-2.057.306-4.69z"/><path d="M1060.171 553.522L1257.13 685.91"/><path fill="none" stroke="#1B171B" stroke-miterlimit="10" d="M1060.171 553.522l191.1 128.449"/><path fill="#1B171B" d="M1257.13 685.91l-10.526-2.177 4.229-2.058.307-4.689z"/><path fill="none" stroke="#1B171B" stroke-miterlimit="10" stroke-dasharray="2,2" d="M721.402 334.766l90.761-102.942M639.466 334.766L812.163 544.39M614.469 334.766l429.161 52.847"/><path d="M579.458 220.617V81.432"/><path fill="none" stroke="#1B171B" stroke-miterlimit="10" d="M579.458 220.617V87.467"/><path fill="#1B171B" d="M579.458 81.432c1.054 2.84 2.852 6.364 4.756 8.548l-4.756-1.721-4.755 1.721c1.904-2.185 3.702-5.709 4.755-8.548z"/><path d="M560.327 225.093L353.467 88.579"/><path fill="none" stroke="#1B171B" stroke-miterlimit="10" d="M560.327 225.093L358.504 91.903"/><path fill="#1B171B" d="M353.467 88.579c2.951.685 6.882 1.125 9.753.739l-4.055 3.021-1.184 4.916c-.773-2.792-2.724-6.233-4.514-8.676z"/><path d="M560.388 240.728l-190.717-.089"/><path fill="none" stroke="#1B171B" stroke-miterlimit="10" d="M560.388 240.728l-184.681-.086"/><path fill="#1B171B" d="M369.671 240.639c2.84-1.052 6.364-2.849 8.55-4.751l-1.723 4.755 1.718 4.756c-2.182-1.907-5.705-3.706-8.545-4.76z"/><path d="M338.469 390.697l-198.032-.089"/><path fill="none" stroke="#1B171B" stroke-miterlimit="10" d="M338.469 390.697l-191.997-.086"/><path fill="#1B171B" d="M140.437 390.608c2.84-1.052 6.364-2.849 8.55-4.752l-1.723 4.755 1.718 4.756c-2.183-1.905-5.706-3.705-8.545-4.759z"/><path d="M1061.647 394.637h194.008"/><path fill="none" stroke="#1B171B" stroke-miterlimit="10" d="M1061.647 394.637h186.948"/><path fill="#1B171B" d="M1255.655 394.637l-9.949 4.065 2.361-4.065-2.361-4.065z"/><path d="M1072.438 544.504h194.008"/><path fill="none" stroke="#1B171B" stroke-miterlimit="10" d="M1072.438 544.504h186.948"/><path fill="#1B171B" d="M1266.446 544.504l-9.949 4.066 2.361-4.066-2.361-4.065z"/><path d="M1302.435 394.921h194.009"/><path fill="none" stroke="#1B171B" stroke-miterlimit="10" d="M1302.435 394.921h186.949"/><path fill="#1B171B" d="M1496.444 394.921l-9.949 4.066 2.36-4.066-2.36-4.065z"/><path d="M1051.104 402.454v130.541"/><path fill="none" stroke="#1B171B" stroke-miterlimit="10" d="M1051.104 402.454v123.481"/><path fill="#1B171B" d="M1051.104 532.995l-4.066-9.949 4.066 2.361 4.065-2.361z"/><path fill="none" stroke="#1B171B" stroke-miterlimit="10" stroke-dasharray="2,2" d="M725.815 484.165l86.348-90.198m-319.972-59.201l319.972 59.201m149.59-59.201l-149.59 59.201m51.371 94.101l180.096-100.455M850.526 488.068l-271.074-93.147m513.039-60.155l-513.039 60.155m524.194-60.155L812.163 544.39M492.184 175.909l319.979 218.058M634.076 175.909L812.163 544.39m-165.88-368.481l397.347 211.704M614.469 290.33l-259.677 97.283m279.284-97.283l-54.624 254.174M390.146 334.766L812.163 544.39M409.417 334.766l638.334 53.163m-780.228-53.163l544.64 59.201m-422.017 47.527l189.308-209.67m-170.039 209.67l170.037 103.01m-85.018-60.339l317.729-90.198m-197.694 90.198l197.694 60.225m-178.081-60.225l409.548-96.552M614.469 597.199L354.792 387.613m279.284 209.586l-54.622-365.375m-87.27-192.377l319.979 354.52M614.469 39.447L812.163 544.39M634.076 39.447l413.675 348.482M624.408 141.673L361.502 387.259m277.964-245.586l-60.014 402.831m-85.018-402.831l-139.642 90.151m158.871-90.151L354.792 89.932m-87.266-50.485l544.637 354.52M384.46 39.447l663.291 348.482M369.668 39.447L812.163 544.39M390.146 141.673l-34.964 246.256m54.233-246.256l170.717 399.668M267.523 141.673l87.659 89.9m-71.528-89.9l295.804-60.241"/><path d="M579.452 387.124V240.646"/><path fill="none" stroke="#1B171B" stroke-miterlimit="10" d="M579.452 387.124V246.682"/><path fill="#1B171B" d="M579.452 240.646c1.054 2.84 2.852 6.363 4.756 8.547l-4.756-1.72-4.755 1.72c1.904-2.183 3.702-5.706 4.755-8.547z"/><path fill="none" stroke="#1B171B" stroke-miterlimit="10" stroke-dasharray="2,2" d="M267.526 175.909l544.637 218.058M390.146 175.909L812.163 544.39M409.415 175.909l634.215 209.855M267.526 281.761l87.656-193.182m-71.528 196.359L579.458 81.432M390.146 283.295l-34.964 104.634m54.235-106.168l170.035 262.743"/><path fill="none" stroke="#1B171B" stroke-miterlimit="10" d="M829.05 716.232s41.518 45.508 43.127 121.996c1.342 63.734-36.048 125.442-48.555 144.25"/><path fill="#1B171B" d="M819.613 988.287l2.214-10.517 2.042 4.234 4.689.326z"/><path d="M1033.558 701.195v141.738"/><path fill="none" stroke="#1B171B" stroke-miterlimit="10" d="M1033.558 701.195v134.678"/><path fill="#1B171B" d="M1033.558 842.933l-4.065-9.949 4.065 2.361 4.064-2.361z"/><path fill="none" stroke="#1B171B" stroke-miterlimit="10" d="M1050.444 701.195s41.52 45.509 43.129 122.002c1.342 63.732-36.049 125.441-48.557 144.248"/><path fill="#1B171B" d="M1041.009 973.255l2.213-10.517 2.043 4.234 4.688.324z"/><path d="M579.836 553.908V695.64"/><path fill="none" stroke="#1B171B" stroke-miterlimit="10" d="M579.836 553.908V688.58"/><path fill="#1B171B" d="M579.836 695.64l-4.065-9.949 4.065 2.361 4.065-2.361z"/><path fill="none" stroke="#1B171B" stroke-miterlimit="10" d="M596.723 553.908s41.519 45.508 43.128 121.996c1.342 63.733-36.049 125.444-48.556 144.254"/><path fill="#1B171B" d="M587.287 825.966l2.213-10.517 2.042 4.235 4.689.325z"/><path d="M557.458 553.523L360.499 685.91"/><path fill="none" stroke="#1B171B" stroke-miterlimit="10" d="M557.458 553.523l-191.1 128.448"/><path fill="#1B171B" d="M360.499 685.91l5.989-8.924.308 4.691 4.227 2.057z"/><path d="M795.434 714.828L579.462 979.453"/><path fill="none" stroke="#1B171B" stroke-miterlimit="10" d="M795.434 714.828L583.927 973.982"/><path fill="#1B171B" d="M579.462 979.453l3.142-10.28 1.656 4.401 4.642.74z"/><path fill="none" stroke="#1B171B" stroke-miterlimit="10" stroke-dasharray="2,2" d="M44.339 336.659l767.824 57.308m-680.556-59.201L812.163 544.39M165.81 334.766l881.941 53.163m-893.299 53.565l418.937-202.952M186.231 439.578l393.901 101.763M59.325 441.494l295.469 103.01m-87.268-60.339l544.637-90.198M384.46 473.523l427.703 70.867m-402.746-70.867l634.213-87.759M397.239 584.653l182.215-352.829M418.536 584.653l161.596-43.312m-268.778 43.312L140.437 390.608m127.089 239.267l544.637-235.908M369.668 624.775l442.495-80.385m-414.924 85.485l650.512-241.946M397.239 729.191l-42.447-341.578m63.744 341.578l160.918-497.367m-295.8 497.367l296.182-33.551m-268.482 33.551l275.933 96.775m-94.332-196.091l319.208-235.908M614.469 629.875l197.694-85.485m-165.88 85.485l397.347-244.111M614.469 740.671L354.792 387.613m291.491 353.058l-66.829-508.847m-80.12 508.847L360.499 685.91m164.115 54.761l62.673 85.295m-87.953-38.869l312.829-399.484M634.076 777.578L812.163 544.39M655.749 777.578l387.881-391.814M624.408 886.066L354.792 387.613m291.491 498.453l-66.829-654.242m-65.791 654.242L369.668 679.748m170.175 206.318l39.993-190.426"/><path d="M1280.358 382.957V249.096"/><path fill="none" stroke="#1B171B" stroke-miterlimit="10" d="M1280.358 382.957V255.131"/><path fill="#1B171B" d="M1280.358 249.096c1.053 2.84 2.852 6.364 4.756 8.548l-4.756-1.721-4.756 1.721c1.905-2.185 3.704-5.708 4.756-8.548z"/><path d="M1293.347 384.237l197.779-131.321"/><path fill="none" stroke="#1B171B" stroke-miterlimit="10" d="M1293.347 384.237l191.898-127.415"/><path fill="#1B171B" d="M1491.126 252.916l-6.039 8.89-.282-4.693-4.216-2.08z"/><path d="M1300.427 412.026l198.027 130.962"/><path fill="none" stroke="#1B171B" stroke-miterlimit="10" d="M1300.427 412.026l192.137 127.068"/><path fill="#1B171B" d="M1498.454 542.988l-10.541-2.097 4.211-2.088.273-4.693z"/><path d="M1263.491 381.505l-198.027-130.962"/><path fill="none" stroke="#1B171B" stroke-miterlimit="10" d="M1263.491 381.505l-192.138-127.067"/><path fill="#1B171B" d="M1065.464 250.543l10.541 2.097-4.213 2.089-.271 4.693z"/><path d="M1051.204 562.088l214.893 277.306"/><path fill="none" stroke="#1B171B" stroke-miterlimit="10" d="M1051.204 562.088l210.568 271.724"/><path fill="#1B171B" d="M1266.097 839.394l-9.307-5.374 4.658-.624 1.768-4.356z"/><path fill="none" stroke="#1B171B" stroke-miterlimit="10" stroke-dasharray="2,2" d="M1185.231 336.659l-373.068 57.308m520.727-59.201l-753.438 60.155m765.121-60.155L812.163 544.39m475.293-104.812l-236.252 104.926m-95.033-357.755L812.163 393.967m270.842-207.218L579.452 394.921m524.194-208.172L812.163 544.39m270.842-252.472l-31.801 252.586m134.027-357.755L812.163 393.967m496.59-208.797L579.452 394.921m753.438-208.172L812.163 544.39m520.727-252.472l-281.686 252.586m361.195-357.755L812.163 393.967m723.76-208.797L579.452 394.921m989.127-209.751L812.163 544.39m750.736-252.472l-511.695 252.586m366.875-209.738l-605.916 59.201m723.76-59.201l-956.471 60.155m983.447-60.155L812.163 544.39m686.291-102.896l-447.25 103.01m361.195-63.997l-606.944-86.54m736.148 83.54l-962.151-82.586m983.447 82.586L812.163 544.39m716.66 37.281l-477.619-37.167m140.842-54.045l-386.591-96.492m507.728 90.198l-733.731-89.244m753.438 85.586L812.163 544.39m481.184 42.965l-12.989-192.434m-89.988 234.954L812.163 393.967m488.264 235.908L579.452 394.921m742.08 234.954L812.163 544.39m468.195 196.281v-345.75m-100.806 382.657L812.163 393.967m481.184 388.941L579.452 394.921m753.438 388.397l-527.435-242.26m539.118 345.008l-64.215-491.145M730.229 640.494l75.226-246.527m40.458 246.527l201.838-252.565M831.228 644.156L579.452 394.921m292.725 345.75l160.521-56.216m-304.114 98.453l83.579-388.941m38.363 393.13L579.452 394.921m304.715 392.176l163.584-399.168M884.167 886.066l148.531-201.611M714.989 922.263l97.174-534.65m14.059 534.65l-246.77-535.139m284.082 544.04l184.217-543.235m-175.539 644.699l160.486-348.173m-69.355-47.614l-151.18-242.874m266.205 242.874l-498.916-241.92m514.156 241.92l-45.857-248.912m55.895 352.742l-291.483-39.929m143.479 76.836L812.163 393.967m266.205 383.611L579.452 394.921m535.668 382.657l-67.369-389.649m55.895 498.137L812.163 700.742m140.275 230.422L812.163 393.967m280.33 537.197L579.452 394.921m529.475 536.243l-61.176-543.235m55.895 644.699L812.163 700.742"/></svg>